<svg xmlns="http://www.w3.org/2000/svg" width="88.903" height="96.093" viewBox="0 0 88.903 96.093">
  <path d="M94.581,49.809v.179A44.392,44.392,0,0,0,24.234,13.924L5.7,1.978V49.384c0,22.03,15.829,40.708,36.853,44.384.137.023.272.051.409.073.507.084,1.019.151,1.531.217.257.033.513.07.772.1.426.047.856.081,1.285.116.337.027.673.057,1.012.077.387.022.777.032,1.167.044.281.009.559.029.842.033.11,0,.218,0,.328,0,.3,0,.6,0,.9-.007s.583-.007.873-.017c.312-.011.623-.028.934-.046.288-.015.577-.03.863-.051.31-.024.618-.054.926-.083.284-.027.569-.053.852-.086.307-.035.612-.078.918-.12.28-.038.561-.074.839-.118.3-.047.607-.1.91-.156.275-.049.551-.1.824-.15.3-.059.6-.127.9-.192.27-.06.541-.116.809-.18.3-.072.6-.151.893-.229.264-.069.53-.135.793-.209.3-.084.588-.175.882-.264.259-.079.52-.155.778-.238.292-.095.581-.2.871-.3.254-.088.509-.173.761-.266.289-.107.575-.222.862-.334.247-.1.495-.19.74-.291.288-.12.572-.247.858-.372.238-.1.478-.2.713-.313.288-.132.571-.273.855-.411.228-.111.459-.218.686-.332.289-.147.573-.3.859-.455.215-.116.433-.227.647-.345.3-.165.589-.34.882-.512.2-.115.395-.225.59-.343.323-.2.64-.4.958-.607.159-.1.32-.2.477-.3q.709-.468,1.4-.962L94.6,98.071C94.6,90.712,94.582,46.8,94.581,49.809Zm-3.9,41.174L75.817,81.322l-.021.019h0c-.531.435-1.071.859-1.623,1.267s-1.141.819-1.728,1.207a38.852,38.852,0,0,1-19.6,6.613c-16.021.742-39.078-12.166-38.094-38.659.665-17.919,15.53-30.651,29.777-31.126,12.263-.41,16.748,5.6,17.829,7.52a.211.211,0,0,1-.3.281,24.277,24.277,0,0,0-13.893-3.333c-11.435.91-20.483,9.93-22.146,21.28C24.427,57.3,30.4,79.75,56.35,79.75c9.082,0,29.67-6.607,29.67-30.817,0-20.194-14.285-32.113-16.476-33.842a.3.3,0,0,1,.337-.494A40.687,40.687,0,0,1,89.7,41.108c.246,1.1.443,2.209.6,3.336.175,1.272.295,2.561.348,3.868.023.556.037,1.114.037,1.676ZM70.268,44.889A20.625,20.625,0,0,1,45.718,69.44,20.376,20.376,0,0,1,30.03,53.752,20.624,20.624,0,0,1,54.581,29.2,20.375,20.375,0,0,1,70.268,44.889Z" transform="translate(-5.698 -1.978)"/>
</svg>