<svg width="42" height="42" viewBox="0 0 42 42" fill="none" xmlns="http://www.w3.org/2000/svg">
<circle cx="21.5" cy="20.5" r="19.5" fill="#3458D5" fill-opacity="0.1"/>
<path d="M21.2877 40.3666C10.4342 40.3666 1.60437 31.5368 1.60437 20.6833C1.60437 9.82981 10.4342 1 21.2877 1C32.1412 1 40.971 9.82981 40.971 20.6833C40.971 31.5368 32.1412 40.3666 21.2877 40.3666ZM21.2877 1.91198C10.9371 1.91198 2.51635 10.3328 2.51635 20.6833C2.51635 31.0339 10.9371 39.4546 21.2877 39.4546C31.6382 39.4546 40.059 31.0339 40.059 20.6833C40.059 10.3328 31.6382 1.91198 21.2877 1.91198Z" fill="#3458D5" stroke="#3458D5" stroke-width="0.5"/>
<path d="M18.8773 19.1098L18.8286 18.7715C27.1267 17.5754 31.708 12.8322 33.2926 10.8486L33.5598 11.062C31.9497 13.0771 27.2963 17.8964 18.8773 19.1098Z" fill="#3458D5" stroke="#3458D5"/>
<path d="M18.9133 20.1968C19.6235 20.1968 20.1992 19.6211 20.1992 18.9109C20.1992 18.2007 19.6235 17.625 18.9133 17.625C18.2032 17.625 17.6274 18.2007 17.6274 18.9109C17.6274 19.6211 18.2032 20.1968 18.9133 20.1968Z" fill="#3458D5" stroke="#3458D5"/>
<path d="M33.3779 12.2876C34.0881 12.2876 34.6638 11.7119 34.6638 11.0017C34.6638 10.2915 34.0881 9.71582 33.3779 9.71582C32.6677 9.71582 32.092 10.2915 32.092 11.0017C32.092 11.7119 32.6677 12.2876 33.3779 12.2876Z" fill="#3458D5" stroke="#3458D5"/>
<path d="M13.9343 34.8175C12.3457 32.8171 9.82494 28.6438 10.7903 23.166L11.1268 23.2258C10.1847 28.5713 12.6489 32.6493 14.2015 34.6046L13.9343 34.8175Z" fill="#3458D5" stroke="#3458D5"/>
<path d="M10.9572 24.5474C11.6674 24.5474 12.2431 23.9717 12.2431 23.2615C12.2431 22.5513 11.6674 21.9756 10.9572 21.9756C10.247 21.9756 9.67133 22.5513 9.67133 23.2615C9.67133 23.9717 10.247 24.5474 10.9572 24.5474Z" fill="#3458D5" stroke="#3458D5"/>
<path d="M14.0283 35.9448C14.7385 35.9448 15.3142 35.3691 15.3142 34.6589C15.3142 33.9488 14.7385 33.373 14.0283 33.373C13.3181 33.373 12.7424 33.9488 12.7424 34.6589C12.7424 35.3691 13.3181 35.9448 14.0283 35.9448Z" fill="#3458D5" stroke="#3458D5"/>
<path d="M34.3076 24.4603L33.9656 24.4507C34.085 20.1758 32.4508 16.0842 29.3633 12.9301C26.1485 9.64513 21.6611 7.78104 17.0396 7.80794L17.0374 7.46595C21.7436 7.44771 26.3286 9.34007 29.6077 12.6907C32.7604 15.9118 34.4293 20.0919 34.3076 24.4603Z" fill="#3458D5" stroke="#3458D5"/>
<path d="M34.1138 25.6773C34.824 25.6773 35.3997 25.1015 35.3997 24.3914C35.3997 23.6812 34.824 23.1055 34.1138 23.1055C33.4037 23.1055 32.8279 23.6812 32.8279 24.3914C32.8279 25.1015 33.4037 25.6773 34.1138 25.6773Z" fill="#3458D5" stroke="#3458D5"/>
<path d="M17.1013 8.94679C17.8114 8.94679 18.3872 8.37108 18.3872 7.66089C18.3872 6.95071 17.8114 6.375 17.1013 6.375C16.3911 6.375 15.8154 6.95071 15.8154 7.66089C15.8154 8.37108 16.3911 8.94679 17.1013 8.94679Z" fill="#3458D5" stroke="#3458D5"/>
<path d="M23.7496 33.9345C13.4342 33.4256 6.44063 26.6715 3.33488 20.5202C1.05173 15.9977 0.69469 11.591 2.40329 9.01918C3.50588 7.35937 5.40143 6.57461 7.87929 6.74697L7.85558 7.08806C5.50084 6.92344 3.71837 7.65759 2.68783 9.20841C1.04717 11.6781 1.41196 15.953 3.63994 20.3661C6.70192 26.4317 13.5974 33.0909 23.7665 33.5925L23.7496 33.9345Z" fill="#3458D5" stroke="#3458D5"/>
<path d="M23.694 35.0278C24.4042 35.0278 24.9799 34.4521 24.9799 33.7419C24.9799 33.0318 24.4042 32.4561 23.694 32.4561C22.9838 32.4561 22.4081 33.0318 22.4081 33.7419C22.4081 34.4521 22.9838 35.0278 23.694 35.0278Z" fill="#3458D5" stroke="#3458D5"/>
<path d="M9.23767 35.8531C4.47074 35.0715 1.24233 31.6324 1.01251 27.0912C0.791806 22.7228 3.48079 17.5295 9.98596 15.7744L10.0749 16.1046C3.75392 17.81 1.14018 22.8423 1.3545 27.0739C1.53051 30.5549 3.70833 34.6 9.2933 35.5156L9.23767 35.8531Z" fill="#3458D5" stroke="#3458D5"/>
<path d="M9.96949 17.2456C10.6797 17.2456 11.2554 16.6699 11.2554 15.9597C11.2554 15.2495 10.6797 14.6738 9.96949 14.6738C9.25931 14.6738 8.68359 15.2495 8.68359 15.9597C8.68359 16.6699 9.25931 17.2456 9.96949 17.2456Z" fill="#3458D5" stroke="#3458D5"/>
<path d="M31.5138 41.0004C31.3656 41.0004 31.2155 40.9936 31.0632 40.9794C28.1741 40.7109 25.5571 38.0419 24.062 33.8395L24.3843 33.7246C25.8335 37.7984 28.3419 40.383 31.0947 40.6388C32.5767 40.7797 33.8886 40.1824 34.5242 39.0898C35.1822 37.9594 34.9921 36.497 34.0021 35.0789L34.2825 34.8828C35.3518 36.415 35.547 38.0109 34.8197 39.2617C34.1822 40.357 32.941 41.0004 31.5138 41.0004Z" fill="#3458D5" stroke="#3458D5"/>
<path d="M27.2466 6.51301L26.9215 6.4063C27.6985 4.0502 29.0711 2.5322 30.688 2.24265C31.6834 2.06299 32.662 2.4027 33.2393 3.12636C33.8097 3.84135 33.9018 4.80395 33.4928 5.76655L33.1786 5.63294C33.537 4.78936 33.4618 3.95353 32.9725 3.33976C32.4737 2.7146 31.6214 2.42322 30.7486 2.57963C29.2589 2.84593 27.9831 4.28002 27.2466 6.51301Z" fill="#3458D5" stroke="#3458D5"/>
<path d="M27.1111 7.68605C27.8213 7.68605 28.397 7.11033 28.397 6.40015C28.397 5.68997 27.8213 5.11426 27.1111 5.11426C26.4009 5.11426 25.8252 5.68997 25.8252 6.40015C25.8252 7.11033 26.4009 7.68605 27.1111 7.68605Z" fill="#3458D5" stroke="#3458D5"/>
</svg>
