<svg width="73" height="72" viewBox="0 0 73 72" fill="none" xmlns="http://www.w3.org/2000/svg">
<path d="M22.8921 30.255L36.875 16.272L50.8645 30.261L59.0005 22.125L36.875 0L14.7567 22.1184L22.8924 30.2544L22.8921 30.255ZM0.875145 36L9.0114 27.8626L17.1471 35.9983L9.01082 44.1346L0.875145 36ZM22.8921 41.7459L36.875 55.728L50.8643 41.7393L59.0045 49.8709L59.0005 49.8753L36.875 72L14.7567 49.8816L14.7452 49.8701L22.8929 41.745L22.8921 41.7459ZM56.6029 36.0035L64.7392 27.8672L72.8749 36.0029L64.7389 44.1392L56.6029 36.0035Z" fill="#F3BA2F"/>
<path d="M45.1267 35.9957H45.1302L36.875 27.7399L30.7731 33.84L30.0722 34.5413L28.6264 35.9873L28.6149 35.9986L28.6264 36.0104L36.875 44.2601L45.1307 36.0043L45.1348 35.9997L45.1273 35.9957" fill="#F3BA2F"/>
</svg>
