<svg width="226" height="48" viewBox="0 0 226 48" fill="none" xmlns="http://www.w3.org/2000/svg">
<path fill-rule="evenodd" clip-rule="evenodd" d="M24 3C24 4.52772 22.8581 5.78872 21.3812 5.97601C20.3578 7.83437 19.3787 10.9545 18.7736 15.0666C18.0195 14.7134 17.9158 7.61633 19.0297 5.40079L19.0613 5.28949C18.4121 4.73919 18 3.91772 18 3C18 1.34315 19.3431 0 21 0C22.6569 0 24 1.34315 24 3ZM5.7143 12.1207C5.23411 11.1038 4.19923 10.4001 3 10.4001C1.34315 10.4001 0 11.7433 0 13.4001C0 15.057 1.34315 16.4001 3 16.4001C4.00738 16.4001 4.89879 15.9036 5.44285 15.1419C8.45168 14.7666 14.9047 16.4595 22.9292 21.2681C24.045 21.9367 25.0943 22.6122 26.0838 23.2862C26.7905 22.7907 27.4567 22.3001 28.0834 21.8172C26.8088 20.9245 25.4827 20.0633 24.1299 19.2524C17.2679 15.1406 10.6341 12.748 6.3516 12.7427C6.21747 12.6039 5.98959 12.3778 5.7143 12.1207ZM18.8349 42.9234C18.3178 43.4624 18 44.1941 18 45C18 46.6569 19.3431 48 21 48C22.6569 48 24 46.6569 24 45C24 43.4731 22.8594 42.2127 21.3837 42.0243C19.711 38.9916 18.1561 32.5934 18.1561 23.9999C18.1561 22.6194 18.198 21.3 18.2723 20.0372C17.4869 19.6404 16.7266 19.2775 15.9982 18.9519C15.8771 20.611 15.8153 22.3069 15.8153 23.9994C15.8153 31.1637 16.9095 38.3803 19.0321 42.598C18.9603 42.7028 18.8947 42.8119 18.8349 42.9234ZM30.0213 26.228C33.4327 29.0318 35.6504 31.6345 36.6058 33.5059C36.4729 33.8448 36.4 34.2138 36.4 34.5999C36.4 36.2567 37.7432 37.5999 39.4 37.5999C41.0569 37.5999 42.4 36.2567 42.4 34.5999C42.4 32.943 41.0569 31.5999 39.4 31.5999C39.3337 31.5999 39.2678 31.602 39.2026 31.6063C38.7793 31.541 38.4088 31.5193 38.1965 31.5193C36.8838 29.3681 30.6702 25.7485 30.0213 26.228ZM6.3516 35.2561C8.71693 35.2536 15.0425 31.5779 14.9639 30.7602C10.7023 32.4913 7.36567 33.0974 5.44059 32.8549C4.89632 32.095 4.00599 31.5999 3 31.5999C1.34315 31.5999 0 32.943 0 34.5999C0 36.2567 1.34315 37.5999 3 37.5999C4.19597 37.5999 5.22848 36.9 5.71036 35.8875C5.91595 35.6915 6.12879 35.4809 6.3516 35.2561ZM38.3312 16.2041C38.6632 16.3308 39.0235 16.4001 39.4 16.4001C41.0569 16.4001 42.4 15.057 42.4 13.4001C42.4 11.7433 41.0569 10.4001 39.4 10.4001C37.7432 10.4001 36.4 11.7433 36.4 13.4001C36.4 13.7889 36.474 14.1604 36.6086 14.5013C35.0944 17.4566 30.4251 22.2386 22.9287 26.7307C21.7448 27.4405 20.5957 28.0801 19.4861 28.6574C19.5479 29.536 19.625 30.3745 19.7162 31.1724C21.1621 30.4486 22.6402 29.6386 24.129 28.7459C30.1916 25.1127 35.7626 20.4726 38.1965 16.4857C38.2544 16.3909 38.2974 16.2968 38.3312 16.2041Z" fill="#1D1929"/>
<path d="M65.52 23.1801H61.64V13.0001H58.4V9.6001H68.86V13.0001H65.52V23.1801Z" fill="#1D1929"/>
<path d="M69.9952 23.1801V9.6001H73.8352V16.0001H73.9752C74.2685 14.8801 74.6685 14.1001 75.1752 13.6601C75.6818 13.2068 76.3418 12.9801 77.1552 12.9801C78.1552 12.9801 78.9418 13.3201 79.5152 14.0001C80.1018 14.6668 80.3952 15.5868 80.3952 16.7601V23.1801H76.5352V17.6001C76.5352 17.0801 76.4218 16.6868 76.1952 16.4201C75.9685 16.1534 75.6418 16.0201 75.2152 16.0201C74.7752 16.0201 74.4352 16.1668 74.1952 16.4601C73.9552 16.7401 73.8352 17.1534 73.8352 17.7001V23.1801H69.9952Z" fill="#1D1929"/>
<path d="M87.1264 23.4401C85.3664 23.4401 84.0064 22.9801 83.0464 22.0601C82.0864 21.1268 81.6064 19.8468 81.6064 18.2201C81.6064 16.5934 82.0731 15.3134 83.0064 14.3801C83.9531 13.4468 85.2464 12.9801 86.8864 12.9801C88.4331 12.9801 89.6531 13.4068 90.5464 14.2601C91.4398 15.1001 91.8864 16.2468 91.8864 17.7001C91.8864 18.1001 91.8598 18.4668 91.8064 18.8001H85.4064C85.4864 19.4001 85.6731 19.8601 85.9664 20.1801C86.2731 20.4868 86.6598 20.6401 87.1264 20.6401C87.5131 20.6401 87.8464 20.5534 88.1264 20.3801C88.4064 20.1934 88.6064 19.9334 88.7264 19.6001L92.2064 20.1801C92.0464 20.8068 91.7131 21.3668 91.2064 21.8601C90.7131 22.3534 90.1064 22.7401 89.3864 23.0201C88.6664 23.3001 87.9131 23.4401 87.1264 23.4401ZM88.2064 17.7001C88.2198 17.1001 88.1064 16.6268 87.8664 16.2801C87.6264 15.9334 87.2931 15.7601 86.8664 15.7601C86.4531 15.7601 86.1198 15.9268 85.8664 16.2601C85.6131 16.5934 85.4598 17.0734 85.4064 17.7001H88.2064Z" fill="#1D1929"/>
<path d="M97.5394 23.1801V9.6001H103.839C105.773 9.6001 107.219 10.1668 108.179 11.3001C109.139 12.4201 109.619 14.1401 109.619 16.4601C109.619 18.7268 109.139 20.4134 108.179 21.5201C107.219 22.6268 105.766 23.1801 103.819 23.1801H97.5394ZM103.339 19.9601C104.033 19.9601 104.559 19.7068 104.919 19.2001C105.293 18.6801 105.479 17.9268 105.479 16.9401V15.8801C105.479 14.8801 105.293 14.1268 104.919 13.6201C104.546 13.1001 104.013 12.8401 103.319 12.8401H101.459V19.9601H103.339Z" fill="#1D1929"/>
<path d="M116.052 23.4401C114.292 23.4401 112.932 22.9801 111.972 22.0601C111.012 21.1268 110.532 19.8468 110.532 18.2201C110.532 16.5934 110.999 15.3134 111.932 14.3801C112.879 13.4468 114.172 12.9801 115.812 12.9801C117.359 12.9801 118.579 13.4068 119.472 14.2601C120.366 15.1001 120.812 16.2468 120.812 17.7001C120.812 18.1001 120.786 18.4668 120.732 18.8001H114.332C114.412 19.4001 114.599 19.8601 114.892 20.1801C115.199 20.4868 115.586 20.6401 116.052 20.6401C116.439 20.6401 116.772 20.5534 117.052 20.3801C117.332 20.1934 117.532 19.9334 117.652 19.6001L121.132 20.1801C120.972 20.8068 120.639 21.3668 120.132 21.8601C119.639 22.3534 119.032 22.7401 118.312 23.0201C117.592 23.3001 116.839 23.4401 116.052 23.4401ZM117.132 17.7001C117.146 17.1001 117.032 16.6268 116.792 16.2801C116.552 15.9334 116.219 15.7601 115.792 15.7601C115.379 15.7601 115.046 15.9268 114.792 16.2601C114.539 16.5934 114.386 17.0734 114.332 17.7001H117.132Z" fill="#1D1929"/>
<path d="M126.478 23.1801H122.578V9.6001H131.858V13.0001H126.478V15.1601H131.218V17.8401H126.478V23.1801Z" fill="#1D1929"/>
<path d="M137.159 12.2801H133.279L133.179 9.6001H137.059L137.159 12.2801ZM135.079 23.1801C133.892 23.1801 133.299 22.6001 133.299 21.4401V15.4801L131.739 15.9201V13.2401H137.159V19.4801C137.159 19.9201 137.379 20.1401 137.819 20.1401H138.519V23.1801H135.079Z" fill="#1D1929"/>
<path d="M144.493 23.1801V9.6001H149.213L153.473 17.3001H153.613L153.373 14.1601V9.6001H156.533L156.513 23.1801H152.313L147.453 14.3401H147.313L147.333 14.5201L147.413 15.3001C147.546 16.4468 147.613 17.2201 147.613 17.6201V23.1801H144.493Z" fill="#1D1929"/>
<path d="M163.572 23.4401C161.812 23.4401 160.452 22.9801 159.492 22.0601C158.532 21.1268 158.052 19.8468 158.052 18.2201C158.052 16.5934 158.518 15.3134 159.452 14.3801C160.398 13.4468 161.692 12.9801 163.332 12.9801C164.878 12.9801 166.098 13.4068 166.992 14.2601C167.885 15.1001 168.332 16.2468 168.332 17.7001C168.332 18.1001 168.305 18.4668 168.252 18.8001H161.852C161.932 19.4001 162.118 19.8601 162.412 20.1801C162.718 20.4868 163.105 20.6401 163.572 20.6401C163.958 20.6401 164.292 20.5534 164.572 20.3801C164.852 20.1934 165.052 19.9334 165.172 19.6001L168.652 20.1801C168.492 20.8068 168.158 21.3668 167.652 21.8601C167.158 22.3534 166.552 22.7401 165.832 23.0201C165.112 23.3001 164.358 23.4401 163.572 23.4401ZM164.652 17.7001C164.665 17.1001 164.552 16.6268 164.312 16.2801C164.072 15.9334 163.738 15.7601 163.312 15.7601C162.898 15.7601 162.565 15.9268 162.312 16.2601C162.058 16.5934 161.905 17.0734 161.852 17.7001H164.652Z" fill="#1D1929"/>
<path d="M172.341 23.1801C171.154 23.1801 170.561 22.6001 170.561 21.4401V15.6601H169.141V13.2401C169.861 13.2268 170.434 13.1468 170.861 13.0001C171.287 12.8401 171.614 12.5334 171.841 12.0801C172.067 11.6268 172.181 10.9668 172.181 10.1001V9.7001H174.421V13.2401H179.521V15.6601H174.401V19.4801C174.401 19.9201 174.621 20.1401 175.061 20.1401H176.941V23.1801H172.341Z" fill="#1D1929"/>
<path d="M180.615 23.1801L177.635 13.2401H181.715L182.495 16.6201L182.855 18.4201H182.995L183.455 16.6201L184.436 13.2401H187.715L188.715 16.6201L189.135 18.3201H189.275L189.615 16.6201L190.436 13.2401H193.675L190.575 23.1801H187.335L185.936 18.7001L185.515 17.1401H185.375L184.936 18.7001L183.535 23.1801H180.615Z" fill="#1D1929"/>
<path d="M199.391 23.4401C197.684 23.4401 196.351 22.9734 195.391 22.0401C194.431 21.1068 193.951 19.8201 193.951 18.1801C193.951 16.5534 194.431 15.2801 195.391 14.3601C196.364 13.4401 197.717 12.9801 199.451 12.9801C201.157 12.9801 202.491 13.4401 203.451 14.3601C204.411 15.2801 204.891 16.5601 204.891 18.2001C204.891 19.8268 204.404 21.1068 203.431 22.0401C202.457 22.9734 201.111 23.4401 199.391 23.4401ZM199.431 20.4001C199.977 20.4001 200.357 20.2268 200.571 19.8801C200.797 19.5334 200.911 18.9734 200.911 18.2001C200.911 17.4001 200.797 16.8334 200.571 16.5001C200.357 16.1668 199.977 16.0001 199.431 16.0001C198.884 16.0001 198.504 16.1734 198.291 16.5201C198.077 16.8534 197.971 17.4134 197.971 18.2001C197.971 18.9868 198.077 19.5534 198.291 19.9001C198.517 20.2334 198.897 20.4001 199.431 20.4001Z" fill="#1D1929"/>
<path d="M206.206 23.1801V13.2401H209.806V16.5401H209.966C210.206 14.3401 211.086 13.2401 212.606 13.2401H213.626V16.6401H211.706C211.119 16.6401 210.699 16.7734 210.446 17.0401C210.193 17.3068 210.066 17.7801 210.066 18.4601V23.1801H206.206Z" fill="#1D1929"/>
<path d="M218.504 23.1801H214.644V9.6001H218.504V15.1201L218.364 16.9401H218.504L221.564 13.2401H225.004L222.124 16.6001L225.124 23.1801H221.024L219.504 19.5201L218.504 20.7401V23.1801Z" fill="#1D1929"/>
<path d="M64.3872 34.3105C63.4272 34.0705 62.784 33.9361 62.784 33.1873C62.784 32.6785 63.2736 32.3713 64.0896 32.3713C65.04 32.3713 65.5392 32.7937 65.6448 33.5905H66.7872C66.6912 32.1793 65.5968 31.3921 64.0896 31.3921C62.592 31.3921 61.6512 32.0737 61.6512 33.2929C61.6512 34.5985 62.8128 35.0113 63.888 35.2801C65.2416 35.6161 65.8272 35.7697 65.8272 36.5857C65.8272 37.1137 65.4336 37.5649 64.416 37.5649C63.1872 37.5649 62.592 36.9889 62.5344 36.1153H61.392C61.4592 37.6705 62.736 38.5441 64.416 38.5441C66.144 38.5441 66.9696 37.6321 66.9696 36.5377C66.9696 35.0017 65.856 34.6849 64.3872 34.3105Z" fill="#1D1929"/>
<path d="M72.3 38.4001H73.4424V32.5057H75.6312V31.5361H70.1016V32.5057H72.3V38.4001Z" fill="#1D1929"/>
<path d="M80.4972 34.3681V32.5057H84.318V31.5361H79.3548V38.4001H84.414V37.4305H80.4972V35.3473H83.8476V34.3681H80.4972Z" fill="#1D1929"/>
<path d="M88.2894 38.4001H89.4318V35.6545H91.2078C92.523 35.6545 93.4734 35.0305 93.4734 33.5905C93.4734 32.1505 92.523 31.5361 91.2078 31.5361H88.2894V38.4001ZM89.4318 32.5057H91.1598C91.9278 32.5057 92.331 32.8417 92.331 33.5905C92.331 34.3489 91.9278 34.6753 91.1598 34.6753H89.4318V32.5057Z" fill="#1D1929"/>
<path d="M101.969 31.5361V38.4001H103.111V31.5361H101.969Z" fill="#1D1929"/>
<path d="M107.237 38.4001H108.379V33.2641H108.399L111.499 38.4001H112.767V31.5361H111.624V36.6913H111.605L108.514 31.5361H107.237V38.4001Z" fill="#1D1929"/>
<path d="M118.473 38.4001H119.616V32.5057H121.805V31.5361H116.275V32.5057H118.473V38.4001Z" fill="#1D1929"/>
<path d="M128.254 38.5441C130.318 38.5441 131.624 37.0273 131.624 34.9633C131.624 32.8993 130.318 31.3921 128.254 31.3921C126.181 31.3921 124.885 32.8993 124.885 34.9633C124.885 37.0273 126.181 38.5441 128.254 38.5441ZM128.254 37.5649C126.68 37.5649 126.017 36.3553 126.017 34.9633C126.017 33.5809 126.68 32.3713 128.254 32.3713C129.829 32.3713 130.481 33.5809 130.481 34.9633C130.481 36.3553 129.829 37.5649 128.254 37.5649Z" fill="#1D1929"/>
<path d="M145.422 33.2641C145.422 32.1601 144.606 31.5361 143.195 31.5361H140.247V38.4001H143.358C144.779 38.4001 145.691 37.7185 145.691 36.3937C145.691 35.3665 145.076 34.8385 144.356 34.7137V34.6945C144.923 34.5025 145.422 34.1089 145.422 33.2641ZM141.39 34.3777V32.5057H143.223C143.905 32.5057 144.279 32.8417 144.279 33.4465C144.279 34.0513 143.972 34.3777 143.156 34.3777H141.39ZM141.39 35.2321H143.396C144.116 35.2321 144.548 35.6257 144.548 36.3265C144.548 36.9697 144.251 37.4305 143.271 37.4305H141.39V35.2321Z" fill="#1D1929"/>
<path d="M149.463 31.5361V38.4001H154.033V37.4305H150.606V31.5361H149.463Z" fill="#1D1929"/>
<path d="M160.496 38.5441C162.56 38.5441 163.865 37.0273 163.865 34.9633C163.865 32.8993 162.56 31.3921 160.496 31.3921C158.422 31.3921 157.126 32.8993 157.126 34.9633C157.126 37.0273 158.422 38.5441 160.496 38.5441ZM160.496 37.5649C158.921 37.5649 158.259 36.3553 158.259 34.9633C158.259 33.5809 158.921 32.3713 160.496 32.3713C162.07 32.3713 162.723 33.5809 162.723 34.9633C162.723 36.3553 162.07 37.5649 160.496 37.5649Z" fill="#1D1929"/>
<path d="M172.498 33.8977H173.64C173.477 32.4961 172.421 31.3921 170.683 31.3921C168.706 31.3921 167.458 32.8993 167.458 34.9633C167.458 37.0369 168.706 38.5441 170.683 38.5441C172.431 38.5441 173.487 37.4401 173.64 35.8945H172.498C172.421 36.7297 171.931 37.5649 170.655 37.5649C169.176 37.5649 168.591 36.3265 168.591 34.9633C168.591 33.6097 169.176 32.3713 170.655 32.3713C171.922 32.3713 172.373 33.2065 172.498 33.8977Z" fill="#1D1929"/>
<path d="M177.43 31.5361V38.4001H178.572V36.3745L179.628 35.2417L181.874 38.4001H183.209L180.377 34.4449L183.046 31.5361H181.682L178.572 34.9249V31.5361H177.43Z" fill="#1D1929"/>
<path d="M190.948 33.8977H192.091C191.927 32.4961 190.871 31.3921 189.134 31.3921C187.156 31.3921 185.908 32.8993 185.908 34.9633C185.908 37.0369 187.156 38.5441 189.134 38.5441C190.881 38.5441 191.937 37.4401 192.091 35.8945H190.948C190.871 36.7297 190.382 37.5649 189.105 37.5649C187.627 37.5649 187.041 36.3265 187.041 34.9633C187.041 33.6097 187.627 32.3713 189.105 32.3713C190.372 32.3713 190.823 33.2065 190.948 33.8977Z" fill="#1D1929"/>
<path d="M195.88 31.5361V38.4001H197.023V35.3569H200.267V38.4001H201.41V31.5361H200.267V34.3777H197.023V31.5361H195.88Z" fill="#1D1929"/>
<path d="M209.493 36.7777L210.05 38.4001H211.211L208.696 31.5361H207.496L204.971 38.4001H206.133L206.69 36.7777H209.493ZM207.006 35.8273L208.091 32.5825H208.11L209.186 35.8273H207.006Z" fill="#1D1929"/>
<path d="M214.828 31.5361V38.4001H215.97V31.5361H214.828Z" fill="#1D1929"/>
<path d="M220.097 38.4001H221.239V33.2641H221.258L224.359 38.4001H225.626V31.5361H224.484V36.6913H224.465L221.373 31.5361H220.097V38.4001Z" fill="#1D1929"/>
</svg>
