<svg width="80" height="72" viewBox="0 0 80 72" fill="none" xmlns="http://www.w3.org/2000/svg">
<path d="M38.8339 0.213062C40.5503 -0.672523 42.6454 1.38189 41.7335 3.07865C41.2039 4.46176 39.1958 4.82956 38.1701 3.77527C37.0833 2.76345 37.4377 0.763581 38.8339 0.213062ZM20.373 2.18215C21.4156 1.75748 22.7355 2.70267 22.6291 3.82709C22.7398 5.04774 21.2313 5.94618 20.1686 5.36605C18.7606 4.82644 18.9216 2.56475 20.373 2.18215ZM58.1832 5.40033C56.5539 5.20553 56.296 2.67072 57.8647 2.16033C59.0813 1.57319 60.1976 2.67423 60.3756 3.8154C60.1205 4.78982 59.2959 5.68202 58.1832 5.40033ZM24.5735 9.95683C26.3166 8.86592 28.8039 10.4906 28.5358 12.494C28.4452 14.5168 25.7299 15.6888 24.1978 14.3212C22.7166 13.2471 22.941 10.7828 24.5735 9.95683ZM51.1835 11.1144C51.9612 9.13124 55.1123 9.07124 55.9975 11.0018C56.8724 12.5041 55.7963 14.3645 54.2374 14.8753C52.1726 15.2567 50.2113 13.048 51.1835 11.1144ZM36.6108 14.7627C36.5939 13.0581 38.163 11.788 39.8002 11.6719C40.8862 11.8873 42.0698 12.3451 42.5356 13.4294C43.4038 14.9251 42.6328 16.9846 41.0641 17.6711C40.3467 18.0689 39.4986 17.9197 38.7174 17.8733C37.5231 17.2932 36.5175 16.1555 36.6108 14.7627ZM9.1566 17.2464C10.7489 16.2779 12.8972 18.0455 12.2944 19.7571C11.9625 21.2376 9.95118 21.8399 8.80143 20.8948C7.57412 20.0092 7.76863 17.8799 9.1566 17.2464ZM68.1108 17.2433C69.4618 16.2054 71.6912 17.396 71.5301 19.0838C71.6207 20.6228 69.6933 21.7835 68.3522 20.991C66.8752 20.3341 66.7244 18.0857 68.1108 17.2433ZM44.3315 20.3076C46.5609 19.5151 49.2089 20.4635 50.4795 22.4302C52.1557 24.8345 51.2638 28.4961 48.6627 29.8757C45.9675 31.5074 42.032 30.1242 41.0366 27.1461C39.9065 24.4799 41.5528 21.1433 44.3315 20.3076ZM31.2511 20.5698C33.7219 19.4158 37.0471 20.384 38.2406 22.8849C39.6451 25.3192 38.5591 28.7088 36.0481 29.9657C33.5341 31.3784 29.9872 30.3074 28.7705 27.6938C27.4061 25.1664 28.6177 21.7336 31.2511 20.5698ZM18.1538 25.0005C18.3416 23.4253 19.8434 22.4002 21.3585 22.2942C22.991 22.489 24.2951 23.7436 24.4727 25.3784C24.3656 26.9968 23.1017 28.5786 21.3684 28.5689C19.4614 28.7314 17.7896 26.8542 18.1538 25.0005ZM56.8389 22.6367C58.7967 21.5092 61.5151 23.1506 61.4281 25.3761C61.5624 27.734 58.5537 29.3957 56.6043 28.0125C54.5792 26.8609 54.7371 23.6173 56.8389 22.6367ZM25.928 30.9471C28.2176 30.3237 30.8357 31.3916 31.9587 33.4741C33.1887 35.5702 32.6859 38.4822 30.7754 40.0196C28.3251 42.2746 23.8061 41.3692 22.502 38.2916C21.0034 35.4705 22.8237 31.6897 25.928 30.9471ZM50.7378 30.9354C52.9637 30.3054 55.5785 31.1544 56.7752 33.1609C58.3572 35.4557 57.602 38.8784 55.2466 40.3577C52.7794 42.0755 48.9576 41.1736 47.6 38.4876C45.9541 35.7093 47.6102 31.7828 50.7378 30.9354ZM11.2013 33.5536C13.1791 32.8133 15.3715 34.9729 14.5703 36.9132C14.0808 38.6809 11.5632 39.3342 10.2626 38.031C8.7408 36.8072 9.30425 34.0842 11.2013 33.5536ZM64.8104 36.3693C64.7533 34.7477 65.9523 33.3116 67.6328 33.222C68.9873 33.4344 70.3044 34.5155 70.1973 35.9746C70.3213 37.9016 67.9746 39.2115 66.3153 38.3061C65.5377 37.9149 65.1388 37.1255 64.8104 36.3693ZM1.4765 34.5054C2.66642 33.9915 4.13825 35.0119 3.86657 36.3194C3.80278 37.7999 1.59384 38.3692 0.782321 37.1322C0.0653024 36.2731 0.49449 34.9484 1.4765 34.5054ZM76.5028 34.4758C77.3407 33.8855 78.685 34.3098 79.0169 35.2784C79.58 36.3362 78.5476 37.7855 77.3443 37.6067C75.6551 37.759 75.1085 35.2118 76.5028 34.4758ZM32.391 41.5827C35.5221 40.777 38.8879 43.3605 38.9076 46.5506C39.1119 49.7742 35.7969 52.6328 32.5918 51.8883C30.1143 51.4936 28.1704 49.1322 28.2507 46.655C28.244 44.2858 30.0509 42.0837 32.391 41.5827ZM44.791 41.576C47.9689 40.6971 51.4351 43.327 51.3847 46.5907C51.5524 49.7547 48.341 52.5171 45.2028 51.8894C42.2497 51.5115 40.0707 48.3011 40.8952 45.4655C41.3114 43.5759 42.9069 42.0393 44.791 41.576ZM20.8829 43.5397C23.082 43.1684 25.1436 45.5961 24.2518 47.6622C23.6013 49.8638 20.3631 50.4611 18.9314 48.6627C17.2521 46.9355 18.5058 43.7781 20.8829 43.5397ZM57.2477 43.6367C59.2085 42.824 61.6155 44.5024 61.4647 46.6083C61.5435 48.9264 58.5718 50.525 56.6543 49.1719C54.4823 47.9571 54.8777 44.382 57.2477 43.6367ZM67.4119 53.7245C66.6441 52.3083 68.0388 50.4311 69.6279 50.6933C70.419 50.6801 70.9722 51.2968 71.4786 51.8142C71.5825 52.6535 71.7569 53.6548 71.0529 54.3015C70.0969 55.4988 67.9313 55.1571 67.4119 53.7245ZM9.1499 51.0876C10.6351 50.1093 12.7724 51.5684 12.4385 53.2866C12.2609 54.8061 10.3264 55.6745 9.05225 54.8123C7.68476 54.0296 7.73516 51.801 9.1499 51.0876ZM38.4922 54.2684C40.4365 53.4194 42.9136 55.0944 42.7293 57.2135C42.8734 59.555 39.8096 61.1766 37.9086 59.7705C35.7969 58.5631 36.149 55.011 38.4922 54.2684ZM24.9019 57.4055C26.558 56.5433 28.7803 58.0324 28.6295 59.8663C28.6799 61.3722 27.1947 62.6555 25.6929 62.4331C24.4491 62.4066 23.6379 61.3032 23.2391 60.254C23.2595 59.1105 23.7352 57.8368 24.9019 57.4055ZM52.4305 57.432C54.1335 56.3906 56.5539 57.8863 56.3928 59.8476C56.4365 61.8974 53.7011 63.2103 52.1155 61.8638C50.5803 60.8084 50.7677 58.2712 52.4305 57.432ZM57.2177 69.1425C56.4602 68.0084 57.352 66.642 58.5821 66.3833C59.5712 66.5824 60.617 67.3184 60.4091 68.4529C60.265 69.9884 57.9954 70.4594 57.2177 69.1425ZM19.2165 68.1576C19.5181 67.2588 20.2489 66.3654 21.3184 66.5992C22.8772 66.7086 23.3399 69.0335 21.9755 69.7499C20.7486 70.5685 19.3252 69.4476 19.2165 68.1576ZM37.5499 69.1889C37.8484 67.8592 39.588 67.2124 40.7346 67.9188C41.4921 68.2406 41.7134 69.0794 41.9079 69.7924C41.804 70.1637 41.7111 70.5354 41.6197 70.9067C41.1504 71.4572 40.5471 72.0077 39.7659 71.9879C38.3142 72.1562 37.0046 70.5323 37.5499 69.1889Z" fill="#0033AD"/>
</svg>
