<svg width="131" height="40" viewBox="0 0 131 40" fill="none" xmlns="http://www.w3.org/2000/svg">
<path d="M44.9703 19.7475C44.9356 18.794 45.0949 17.8432 45.4389 16.9524C45.7829 16.0616 46.3045 15.2491 46.9722 14.5638C47.64 13.8784 48.4401 13.3343 49.3246 12.9642C50.2092 12.594 51.1598 12.4054 52.1195 12.4097C55.7355 12.4097 57.8756 14.5193 58.5213 16.9959L56.2521 17.7571C56.0524 16.8339 55.5246 16.013 54.7656 15.4453C54.0065 14.8775 53.067 14.6009 52.1195 14.6661C49.7764 14.6661 47.4334 16.3629 47.4334 19.7934C47.4334 23.2238 49.7211 24.8565 52.1471 24.8565C53.0999 24.8839 54.0344 24.5924 54.8006 24.0285C55.5668 23.4646 56.1202 22.6612 56.372 21.7471L58.5766 22.4626C58.1992 23.8581 57.3529 25.0832 56.1781 25.9342C55.0034 26.7852 53.5711 27.2108 52.1195 27.1403C51.1511 27.1583 50.1895 26.9773 49.2949 26.6084C48.4003 26.2395 47.5921 25.6908 46.9209 24.9967C46.2496 24.3025 45.7299 23.478 45.3942 22.5747C45.0586 21.6714 44.9143 20.7089 44.9703 19.7475Z" fill="#375BD2"/>
<path d="M62.948 26.801H60.6235V12.373H62.948V18.0323C63.2866 17.6342 63.7115 17.3177 64.1908 17.1064C64.6702 16.8951 65.1915 16.7946 65.7154 16.8124C68.1231 16.8124 69.2853 18.5276 69.2853 20.6648V26.801H67.0253V21.0592C67.0677 20.7799 67.0463 20.4946 66.9625 20.2247C66.8788 19.9548 66.735 19.7071 66.5419 19.5C66.3486 19.293 66.111 19.1318 65.8465 19.0285C65.5821 18.9253 65.2977 18.8826 65.0143 18.9037C64.7332 18.904 64.4553 18.9623 64.1979 19.0749C63.9406 19.1876 63.7097 19.3522 63.5197 19.5584C63.3298 19.7644 63.1851 20.0075 63.0946 20.2723C63.0041 20.5369 62.9699 20.8174 62.9942 21.0959L62.948 26.801Z" fill="#375BD2"/>
<path d="M74.48 21.2428L76.9799 20.8576C77.5426 20.7841 77.6993 20.4998 77.6993 20.1604C77.6993 19.3441 77.1459 18.6837 75.8544 18.6837C75.6054 18.6624 75.3546 18.6917 75.1173 18.7697C74.8799 18.8477 74.661 18.9728 74.4739 19.1375C74.2866 19.3022 74.1351 19.503 74.0283 19.7277C73.9216 19.9524 73.8618 20.1964 73.8527 20.4447L71.731 19.9678C71.9063 18.2893 73.4376 16.7942 75.836 16.7942C78.8433 16.7942 79.987 18.491 79.987 20.4631V25.2786C79.9818 25.8008 80.0218 26.3225 80.107 26.8378H77.9392C77.8648 26.4295 77.8339 26.0144 77.847 25.5996C77.5231 26.0931 77.0754 26.494 76.548 26.7626C76.0205 27.0313 75.4317 27.1584 74.8397 27.1313C74.4271 27.165 74.0117 27.1152 73.6189 26.9849C73.2261 26.8545 72.864 26.6462 72.5544 26.3728C72.2449 26.0992 71.9943 25.7661 71.8179 25.3937C71.6415 25.0211 71.5429 24.6169 71.5281 24.2054C71.5281 22.4351 72.8103 21.4813 74.48 21.2428ZM77.6993 22.802V22.3618L75.1534 22.7378C74.8074 22.7496 74.4792 22.8934 74.2371 23.1393C73.9949 23.3852 73.8573 23.7144 73.8527 24.0586C73.8556 24.2363 73.8956 24.4115 73.9701 24.5729C74.0446 24.7345 74.1521 24.8788 74.2856 24.9969C74.4191 25.115 74.5759 25.2044 74.7458 25.2591C74.9159 25.3139 75.0954 25.333 75.2733 25.3152C75.6092 25.3493 75.9486 25.3068 76.2655 25.191C76.5825 25.0752 76.8688 24.889 77.1027 24.6468C77.3365 24.4046 77.5118 24.1125 77.6152 23.7929C77.7186 23.4733 77.7473 23.1344 77.6993 22.802Z" fill="#375BD2"/>
<path d="M83.9346 12.1713C84.1361 12.1688 84.336 12.2062 84.5228 12.2812C84.7096 12.3561 84.8796 12.4672 85.0228 12.608C85.1662 12.7488 85.28 12.9164 85.3576 13.1013C85.4352 13.2861 85.4752 13.4844 85.4752 13.6847C85.4752 14.0836 85.3158 14.4663 85.0321 14.7483C84.7484 15.0305 84.3636 15.189 83.9624 15.189C83.5611 15.189 83.1763 15.0305 82.8926 14.7483C82.6089 14.4663 82.4495 14.0836 82.4495 13.6847C82.4494 13.2896 82.6047 12.9101 82.8822 12.6273C83.1597 12.3446 83.5374 12.1808 83.9346 12.1713ZM82.8001 26.8468V17.0968H85.097V26.801L82.8001 26.8468Z" fill="#375BD2"/>
<path d="M90.4299 26.8014H88.1053V17.0972H90.3745V18.3905C90.669 17.894 91.0926 17.4854 91.6005 17.2079C92.1086 16.9302 92.6825 16.7938 93.2619 16.8128C95.6418 16.8128 96.7856 18.528 96.7856 20.6652V26.8014H94.4611V21.0595C94.4611 19.8672 93.9168 18.9041 92.4593 18.9041C92.1692 18.9058 91.8827 18.9686 91.6187 19.0882C91.3548 19.2079 91.1192 19.3817 90.9276 19.5981C90.7359 19.8147 90.5925 20.0692 90.5067 20.3448C90.4209 20.6203 90.3948 20.9108 90.4299 21.1972V26.8014Z" fill="#375BD2"/>
<path d="M99.6159 26.801V12.373H101.94V26.801H99.6159Z" fill="#375BD2"/>
<path d="M106.092 12.1719C106.495 12.1719 106.882 12.3313 107.168 12.6152C107.454 12.899 107.614 13.2839 107.614 13.6853C107.612 13.982 107.521 14.2716 107.355 14.5176C107.188 14.7635 106.952 14.9549 106.676 15.0676C106.399 15.1803 106.096 15.2093 105.803 15.151C105.511 15.0926 105.242 14.9496 105.031 14.7397C104.82 14.5299 104.676 14.2628 104.618 13.9718C104.559 13.6808 104.588 13.3792 104.701 13.1047C104.815 12.8303 105.007 12.5952 105.255 12.4292C105.502 12.2632 105.793 12.1737 106.092 12.1719ZM104.948 26.8475V17.0974H107.254V26.8016L104.948 26.8475Z" fill="#375BD2"/>
<path d="M112.587 26.8015H110.263V17.0973H112.523V18.3906C112.818 17.8954 113.242 17.4881 113.75 17.2106C114.258 16.9332 114.831 16.796 115.41 16.8129C117.799 16.8129 118.942 18.5281 118.942 20.6653V26.8015H116.618V21.0597C116.661 20.7804 116.639 20.4951 116.556 20.2252C116.472 19.9553 116.328 19.7076 116.135 19.5005C115.941 19.2935 115.704 19.1323 115.439 19.029C115.175 18.9258 114.89 18.8831 114.607 18.9043C114.318 18.9059 114.031 18.9686 113.768 19.0883C113.504 19.208 113.269 19.3819 113.078 19.5987C112.887 19.8154 112.745 20.07 112.66 20.3456C112.575 20.6212 112.551 20.9114 112.587 21.1973V26.8015Z" fill="#375BD2"/>
<path d="M126.894 21.1968L130.99 26.801H128.139L125.271 22.8019L124.071 24.0585V26.8102H121.765V12.373H124.071V21.0225L127.817 17.0968H130.907L126.894 21.1968Z" fill="#375BD2"/>
<path d="M17.4253 8.47513L27.4802 14.2169V25.7464L17.453 31.525L7.39816 25.7923V14.2628L17.4253 8.47513ZM17.4253 0L13.7355 2.12795L3.68985 7.91563L0 10.0436V14.2811V25.8015V30.039L3.68985 32.1487L13.7447 37.8904L17.4345 40L21.1245 37.8721L31.1516 32.0845L34.8415 29.9656V25.7281V14.1985V9.96103L31.1516 7.85142L21.0968 2.10961L17.4069 0H17.4253Z" fill="#375BD2"/>
</svg>
