<svg width="73" height="72" viewBox="0 0 73 72" fill="none" xmlns="http://www.w3.org/2000/svg">
<g clip-path="url(#clip0)">
<path d="M36.375 72C56.2578 72 72.375 55.8828 72.375 36C72.375 16.1172 56.2578 0 36.375 0C16.4922 0 0.375 16.1172 0.375 36C0.375 55.8828 16.4922 72 36.375 72Z" fill="#070A0E"/>
<path fill-rule="evenodd" clip-rule="evenodd" d="M21.1722 48.0709C20.0958 47.4121 19.437 46.2421 19.437 44.982V37.9476C19.437 37.1124 20.1174 36.4356 20.9526 36.4392C21.219 36.4392 21.4818 36.5112 21.7122 36.6444L37.5846 45.9C38.5134 46.44 39.0858 47.4337 39.0858 48.5101V55.7965C39.0894 56.7973 38.2794 57.6109 37.2786 57.6109C36.9438 57.6109 36.6126 57.5173 36.3282 57.3445L21.1722 48.0709ZM44.8314 34.7184C45.7602 35.2584 46.329 36.2556 46.3326 37.3284V52.1173C46.3326 52.5529 46.0986 52.9561 45.717 53.1685L42.243 55.1233C42.1998 55.1485 42.153 55.1665 42.1026 55.1809V46.9692C42.1026 45.9072 41.5446 44.9208 40.6302 44.3736L26.691 36.036V26.766C26.691 25.9308 27.3714 25.254 28.2066 25.2576C28.473 25.2576 28.7358 25.3296 28.9662 25.4628L44.8314 34.7184ZM51.7794 23.796C52.7118 24.336 53.2842 25.3332 53.2842 26.4096V48.0097C53.2806 48.4524 53.0358 48.8592 52.647 49.0717L49.353 50.8501V35.8128C49.353 34.7508 48.795 33.768 47.8878 33.2208L33.639 24.6744V15.8832C33.639 15.6168 33.711 15.354 33.8406 15.1236C34.2618 14.4036 35.187 14.1588 35.907 14.5764L51.7794 23.796Z" fill="#00D395"/>
</g>
<defs>
<clipPath id="clip0">
<rect width="72" height="72" fill="white" transform="translate(0.375)"/>
</clipPath>
</defs>
</svg>
