<svg width="73" height="72" viewBox="0 0 73 72" fill="none" xmlns="http://www.w3.org/2000/svg">
<path d="M36.4 72C56.2822 72 72.4 55.8823 72.4 36C72.4 16.1178 56.2822 0 36.4 0C16.5177 0 0.399994 16.1178 0.399994 36C0.399994 55.8823 16.5177 72 36.4 72Z" fill="#00EF8B"/>
<path d="M52.1679 30.384H42.0159V40.536H52.1679V30.384Z" fill="white"/>
<path d="M31.864 44.352C31.864 46.44 30.136 48.168 28.048 48.168C25.96 48.168 24.232 46.44 24.232 44.352C24.232 42.264 25.96 40.536 28.048 40.536H31.864V30.384H28.048C20.344 30.384 14.08 36.648 14.08 44.352C14.08 52.056 20.344 58.32 28.048 58.32C35.752 58.32 42.016 52.056 42.016 44.352V40.536H31.864V44.352Z" fill="white"/>
<path d="M45.832 25.272H57.28V15.12H45.832C38.128 15.12 31.864 21.384 31.864 29.088V30.384H42.016V29.088C42.016 27 43.744 25.272 45.832 25.272Z" fill="white"/>
<path d="M42.016 30.384H31.864V40.536H42.016V30.384Z" fill="#16FF99"/>
</svg>
