<svg width="203" height="48" viewBox="0 0 203 48" fill="none" xmlns="http://www.w3.org/2000/svg">
<path d="M24.3453 47.24C11.3211 47.24 0.725281 36.6442 0.725281 23.62C0.725281 10.5958 11.3211 0 24.3453 0C37.3695 0 47.9652 10.5958 47.9652 23.62C47.9652 36.6442 37.3695 47.24 24.3453 47.24ZM24.3453 1.09438C11.9246 1.09438 1.81966 11.1993 1.81966 23.62C1.81966 36.0406 11.9246 46.1456 24.3453 46.1456C36.7659 46.1456 46.8709 36.0406 46.8709 23.62C46.8709 11.1993 36.7659 1.09438 24.3453 1.09438Z" fill="#050505"/>
<path d="M21.4528 21.7323L21.3943 21.3263C31.352 19.891 36.8497 14.1991 38.7511 11.8188L39.0718 12.0749C37.1397 14.493 31.5556 20.2762 21.4528 21.7323Z" fill="#050505"/>
<path d="M21.496 23.0368C22.3482 23.0368 23.0391 22.346 23.0391 21.4938C23.0391 20.6415 22.3482 19.9507 21.496 19.9507C20.6438 19.9507 19.9529 20.6415 19.9529 21.4938C19.9529 22.346 20.6438 23.0368 21.496 23.0368Z" fill="#050505"/>
<path d="M38.8534 13.5446C39.7057 13.5446 40.3965 12.8538 40.3965 12.0016C40.3965 11.1494 39.7057 10.4585 38.8534 10.4585C38.0012 10.4585 37.3104 11.1494 37.3104 12.0016C37.3104 12.8538 38.0012 13.5446 38.8534 13.5446Z" fill="#050505"/>
<path d="M15.5212 40.5814C13.6148 38.1809 10.59 33.173 11.7484 26.5996L12.1522 26.6713C11.0217 33.086 13.9787 37.9795 15.8419 40.3259L15.5212 40.5814Z" fill="#050505"/>
<path d="M11.9487 28.2561C12.8009 28.2561 13.4917 27.5652 13.4917 26.713C13.4917 25.8608 12.8009 25.1699 11.9487 25.1699C11.0964 25.1699 10.4056 25.8608 10.4056 26.713C10.4056 27.5652 11.0964 28.2561 11.9487 28.2561Z" fill="#050505"/>
<path d="M15.634 41.9338C16.4862 41.9338 17.177 41.2429 17.177 40.3907C17.177 39.5385 16.4862 38.8477 15.634 38.8477C14.7817 38.8477 14.0909 39.5385 14.0909 40.3907C14.0909 41.2429 14.7817 41.9338 15.634 41.9338Z" fill="#050505"/>
<path d="M39.9691 28.1531L39.5587 28.1416C39.7021 23.0117 37.741 18.1018 34.0359 14.3169C30.1783 10.3749 24.7934 8.13803 19.2476 8.17031L19.2449 7.75992C24.8924 7.73803 30.3944 10.0089 34.3292 14.0296C38.1125 17.895 40.1152 22.911 39.9691 28.1531Z" fill="#050505"/>
<path d="M39.7366 29.612C40.5888 29.612 41.2796 28.9212 41.2796 28.069C41.2796 27.2167 40.5888 26.5259 39.7366 26.5259C38.8843 26.5259 38.1935 27.2167 38.1935 28.069C38.1935 28.9212 38.8843 29.612 39.7366 29.612Z" fill="#050505"/>
<path d="M19.3215 9.53634C20.1737 9.53634 20.8646 8.84549 20.8646 7.99327C20.8646 7.14105 20.1737 6.4502 19.3215 6.4502C18.4693 6.4502 17.7784 7.14105 17.7784 7.99327C17.7784 8.84549 18.4693 9.53634 19.3215 9.53634Z" fill="#050505"/>
<path d="M27.2995 39.5217C14.921 38.9111 6.52876 30.8061 2.80185 23.4245C0.0620772 17.9975 -0.366372 12.7095 1.68395 9.62331C3.00705 7.63154 5.28172 6.68982 8.25514 6.89666L8.22669 7.30596C5.401 7.10842 3.26204 7.9894 2.02539 9.85039C0.0566054 12.814 0.494357 17.9439 3.16792 23.2396C6.8423 30.5183 15.1169 38.5094 27.3198 39.1113L27.2995 39.5217Z" fill="#050505"/>
<path d="M27.2328 40.8327C28.085 40.8327 28.7758 40.1419 28.7758 39.2897C28.7758 38.4374 28.085 37.7466 27.2328 37.7466C26.3806 37.7466 25.6897 38.4374 25.6897 39.2897C25.6897 40.1419 26.3806 40.8327 27.2328 40.8327Z" fill="#050505"/>
<path d="M9.88521 41.8234C4.16489 40.8855 0.290791 36.7586 0.0150073 31.3091C-0.249832 26.0671 2.97694 19.8351 10.7831 17.729L10.8898 18.1252C3.30471 20.1717 0.16822 26.2104 0.425399 31.2884C0.636614 35.4656 3.24999 40.3197 9.95197 41.4185L9.88521 41.8234Z" fill="#050505"/>
<path d="M10.7635 19.4944C11.6157 19.4944 12.3065 18.8035 12.3065 17.9513C12.3065 17.0991 11.6157 16.4082 10.7635 16.4082C9.91126 16.4082 9.2204 17.0991 9.2204 17.9513C9.2204 18.8035 9.91126 19.4944 10.7635 19.4944Z" fill="#050505"/>
<path d="M36.6165 48C36.4387 48 36.2586 47.9918 36.0759 47.9748C32.6089 47.6525 29.4686 44.4498 27.6743 39.4069L28.0612 39.269C29.8001 44.1576 32.8102 47.2591 36.1136 47.5661C37.892 47.7352 39.4662 47.0183 40.229 45.7073C41.0186 44.3508 40.7904 42.596 39.6025 40.8942L39.939 40.6589C41.2222 42.4975 41.4564 44.4126 40.5836 45.9136C39.8186 47.2279 38.3292 48 36.6165 48Z" fill="#050505"/>
<path d="M31.4959 6.61531L31.1058 6.48727C32.0382 3.65994 33.6852 1.83835 35.6256 1.49089C36.8201 1.27529 37.9943 1.68295 38.6871 2.55134C39.3716 3.40933 39.4821 4.56445 38.9913 5.71957L38.6143 5.55924C39.0444 4.54694 38.9541 3.54394 38.367 2.80742C37.7684 2.05723 36.7457 1.70757 35.6983 1.89526C33.9107 2.21482 32.3796 3.93573 31.4959 6.61531Z" fill="#050505"/>
<path d="M31.3334 8.02365C32.1856 8.02365 32.8765 7.33279 32.8765 6.48057C32.8765 5.62836 32.1856 4.9375 31.3334 4.9375C30.4812 4.9375 29.7903 5.62836 29.7903 6.48057C29.7903 7.33279 30.4812 8.02365 31.3334 8.02365Z" fill="#050505"/>
<path d="M69.9868 14.5813L70.005 15.9235V24.575C69.5939 24.6476 69.1042 24.6839 68.5358 24.6839C67.9675 24.6839 67.4899 24.6476 67.103 24.575V14.5813L65.9422 14.5994H64.074C64.0015 14.2488 63.9652 13.8467 63.9652 13.3933C63.9652 12.9399 64.0015 12.5378 64.074 12.1872H73.0521C73.1488 12.5015 73.1972 12.8824 73.1972 13.3298C73.1972 13.7772 73.0763 14.1007 72.8344 14.3002C72.5926 14.4997 72.2057 14.5994 71.6736 14.5994H71.1476L70.005 14.5813H69.9868ZM81.9757 18.5897V22.3079C81.9757 23.118 82.1268 23.7165 82.4291 24.1035C81.9697 24.5146 81.4134 24.7201 80.7605 24.7201C80.1317 24.7201 79.7025 24.575 79.4727 24.2848C79.243 23.9946 79.1281 23.5533 79.1281 22.9608V19.0975C79.1281 18.6864 79.0737 18.3841 78.9649 18.1907C78.8561 17.9972 78.6445 17.9005 78.3301 17.9005C78.1487 17.9005 77.9431 17.9488 77.7134 18.0456C77.4837 18.1423 77.2479 18.2995 77.006 18.5171V24.575C76.607 24.6476 76.1475 24.6839 75.6276 24.6839C75.1077 24.6839 74.6482 24.6476 74.2491 24.575V11.3528L74.3761 11.2259H75.4644C76.0448 11.2259 76.4468 11.3528 76.6705 11.6068C76.8942 11.8607 77.006 12.302 77.006 12.9308V16.3588C77.8162 15.6937 78.6263 15.3612 79.4365 15.3612C80.2466 15.3612 80.8723 15.6544 81.3137 16.2409C81.755 16.8273 81.9757 17.6103 81.9757 18.5897ZM91.1533 20.9657H86.4194C86.4436 21.5098 86.5826 21.933 86.8365 22.2353C87.0905 22.5376 87.5076 22.6887 88.088 22.6887C88.3782 22.6887 88.7138 22.6464 89.0947 22.5618C89.4755 22.4771 89.9139 22.3381 90.4096 22.1446C90.8086 22.5557 91.0565 23.1119 91.1533 23.8133C90.1859 24.5025 89.0009 24.8471 87.5983 24.8471C86.8365 24.8471 86.1987 24.7262 85.6848 24.4843C85.1709 24.2425 84.7538 23.904 84.4333 23.4687C84.1129 23.0334 83.8862 22.5195 83.7532 21.927C83.6202 21.3345 83.5537 20.6876 83.5537 19.9863C83.5537 19.3091 83.6353 18.6834 83.7985 18.109C83.9618 17.5347 84.2096 17.0359 84.5421 16.6127C84.8747 16.1895 85.2979 15.857 85.8118 15.6151C86.3257 15.3733 86.9272 15.2524 87.6164 15.2524C88.1968 15.2524 88.7198 15.3491 89.1853 15.5426C89.6509 15.7361 90.0469 16.0021 90.3733 16.3406C90.6998 16.6792 90.9507 17.0843 91.126 17.5558C91.3014 18.0274 91.389 18.5413 91.389 19.0975C91.389 19.8351 91.3104 20.4578 91.1533 20.9657ZM86.4012 19.0068H88.7954V18.8073C88.7954 18.3599 88.6956 17.9911 88.4961 17.7009C88.2966 17.4107 87.9973 17.2656 87.5983 17.2656C87.2114 17.2656 86.9242 17.4017 86.7368 17.6737C86.5494 17.9458 86.4375 18.3902 86.4012 19.0068ZM105.409 23.777C105.022 24.0914 104.515 24.3211 103.886 24.4662C103.257 24.6113 102.562 24.6839 101.8 24.6839C101.425 24.6839 100.884 24.6778 100.177 24.6657C99.4693 24.6536 98.5836 24.6355 97.5195 24.6113L97.3925 24.4843V12.2778L97.5195 12.1509C98.2208 12.1267 98.9493 12.1086 99.7051 12.0965C100.461 12.0844 101.256 12.0783 102.09 12.0783C103.118 12.0783 103.976 12.2416 104.666 12.568C105.355 12.8945 105.905 13.3419 106.316 13.9102C106.727 14.4785 107.017 15.1466 107.187 15.9144C107.356 16.6822 107.441 17.5075 107.441 18.3902C107.441 19.5993 107.302 20.6453 107.024 21.5279C106.745 22.4106 106.207 23.1603 105.409 23.777ZM102.072 22.4167C103.668 22.4167 104.466 21.0745 104.466 18.3902C104.466 15.6937 103.668 14.3455 102.072 14.3455H101.047C101.047 14.3455 100.79 14.3395 100.276 14.3274V22.4348C100.494 22.4227 100.751 22.4167 101.047 22.4167H102.072ZM116.255 20.9657H111.522C111.546 21.5098 111.685 21.933 111.939 22.2353C112.193 22.5376 112.61 22.6887 113.19 22.6887C113.48 22.6887 113.816 22.6464 114.197 22.5618C114.578 22.4771 115.016 22.3381 115.512 22.1446C115.911 22.5557 116.159 23.1119 116.255 23.8133C115.288 24.5025 114.103 24.8471 112.701 24.8471C111.939 24.8471 111.301 24.7262 110.787 24.4843C110.273 24.2425 109.856 23.904 109.536 23.4687C109.215 23.0334 108.988 22.5195 108.855 21.927C108.722 21.3345 108.656 20.6876 108.656 19.9863C108.656 19.3091 108.738 18.6834 108.901 18.109C109.064 17.5347 109.312 17.0359 109.644 16.6127C109.977 16.1895 110.4 15.857 110.914 15.6151C111.428 15.3733 112.029 15.2524 112.719 15.2524C113.299 15.2524 113.822 15.3491 114.288 15.5426C114.753 15.7361 115.149 16.0021 115.476 16.3406C115.802 16.6792 116.053 17.0843 116.228 17.5558C116.404 18.0274 116.491 18.5413 116.491 19.0975C116.491 19.8351 116.413 20.4578 116.255 20.9657ZM111.503 19.0068H113.898V18.8073C113.898 18.3599 113.798 17.9911 113.598 17.7009C113.399 17.4107 113.1 17.2656 112.701 17.2656C112.314 17.2656 112.026 17.4017 111.839 17.6737C111.652 17.9458 111.54 18.3902 111.503 19.0068ZM118.722 24.575V17.5014L117.162 17.5196C117.09 17.2173 117.054 16.8848 117.054 16.522C117.054 16.1593 117.09 15.8207 117.162 15.5063L118.577 15.5244C118.517 15.0771 118.486 14.672 118.486 14.3092C118.486 13.4024 118.78 12.6497 119.366 12.0511C119.952 11.4526 120.717 11.1533 121.66 11.1533C122.604 11.1533 123.529 11.3226 124.435 11.6612C124.448 11.9756 124.393 12.3171 124.272 12.6859C124.151 13.0547 124 13.3359 123.819 13.5293C123.25 13.36 122.785 13.2754 122.422 13.2754C121.612 13.2754 121.207 13.6926 121.207 14.5269C121.207 14.8775 121.231 15.2161 121.28 15.5426L123.656 15.5063C123.728 15.8207 123.764 16.1593 123.764 16.522C123.764 16.8848 123.728 17.2173 123.656 17.5196L121.479 17.4833V24.575C121.068 24.6476 120.615 24.6839 120.119 24.6839C119.623 24.6839 119.157 24.6476 118.722 24.575ZM128.915 17.6103V24.575C128.71 24.6113 128.486 24.6385 128.244 24.6567C128.003 24.6748 127.755 24.6839 127.501 24.6839C127.247 24.6839 126.996 24.6748 126.748 24.6567C126.5 24.6385 126.273 24.6113 126.068 24.575V18.5715C126.068 17.8702 125.784 17.5196 125.215 17.5196H124.943C124.871 17.2898 124.834 16.9694 124.834 16.5583C124.834 16.1593 124.871 15.8207 124.943 15.5426C125.258 15.5184 125.548 15.4972 125.814 15.4791C126.08 15.461 126.322 15.4519 126.539 15.4519H126.938C127.555 15.4519 128.039 15.6454 128.389 16.0323C128.74 16.4192 128.915 16.9452 128.915 17.6103ZM125.741 11.8788C126.092 11.6854 126.545 11.5886 127.102 11.5886C127.67 11.5886 128.111 11.6854 128.426 11.8788C128.571 12.2053 128.643 12.556 128.643 12.9308C128.643 13.3056 128.571 13.6563 128.426 13.9828C128.075 14.1641 127.616 14.2548 127.047 14.2548C126.479 14.2548 126.044 14.1641 125.741 13.9828C125.596 13.6563 125.524 13.3056 125.524 12.9308C125.524 12.556 125.596 12.2053 125.741 11.8788ZM145.094 12.0602L145.221 12.1872V24.5206C144.737 24.6294 144.166 24.6839 143.507 24.6839C142.848 24.6839 142.265 24.6476 141.757 24.575L138.909 18.0818C138.571 17.3442 138.226 16.4918 137.875 15.5244L137.821 15.5426C137.966 17.308 138.039 19.1157 138.039 20.9657V24.575C137.664 24.6476 137.21 24.6839 136.678 24.6839C136.146 24.6839 135.699 24.6476 135.336 24.575V12.2416C135.796 12.1327 136.349 12.0783 136.996 12.0783C137.643 12.0783 138.22 12.1146 138.728 12.1872L141.539 18.6622C142.047 19.8593 142.422 20.7783 142.664 21.4191L142.736 21.3828C142.591 19.7021 142.519 17.9186 142.519 16.0323V13.8195C142.519 13.1908 142.645 12.7403 142.899 12.4683C143.153 12.1962 143.564 12.0602 144.133 12.0602H145.094ZM154.725 20.9657H149.991C150.015 21.5098 150.154 21.933 150.408 22.2353C150.662 22.5376 151.079 22.6887 151.66 22.6887C151.95 22.6887 152.286 22.6464 152.666 22.5618C153.047 22.4771 153.486 22.3381 153.981 22.1446C154.38 22.5557 154.628 23.1119 154.725 23.8133C153.758 24.5025 152.573 24.8471 151.17 24.8471C150.408 24.8471 149.77 24.7262 149.257 24.4843C148.743 24.2425 148.326 23.904 148.005 23.4687C147.685 23.0334 147.458 22.5195 147.325 21.927C147.192 21.3345 147.125 20.6876 147.125 19.9863C147.125 19.3091 147.207 18.6834 147.37 18.109C147.534 17.5347 147.781 17.0359 148.114 16.6127C148.446 16.1895 148.87 15.857 149.384 15.6151C149.897 15.3733 150.499 15.2524 151.188 15.2524C151.769 15.2524 152.292 15.3491 152.757 15.5426C153.223 15.7361 153.619 16.0021 153.945 16.3406C154.272 16.6792 154.522 17.0843 154.698 17.5558C154.873 18.0274 154.961 18.5413 154.961 19.0975C154.961 19.8351 154.882 20.4578 154.725 20.9657ZM149.973 19.0068H152.367V18.8073C152.367 18.3599 152.267 17.9911 152.068 17.7009C151.868 17.4107 151.569 17.2656 151.17 17.2656C150.783 17.2656 150.496 17.4017 150.309 17.6737C150.121 17.9458 150.009 18.3902 149.973 19.0068ZM161.98 15.5063C162.053 15.8449 162.089 16.1834 162.089 16.522C162.089 16.8606 162.053 17.1931 161.98 17.5196L159.822 17.4833V21.6549C159.822 22.2232 160.088 22.5074 160.62 22.5074H161.635C161.793 22.9427 161.871 23.3417 161.871 23.7044C161.871 24.0672 161.847 24.3272 161.799 24.4843C160.904 24.6053 160.082 24.6657 159.332 24.6657C157.808 24.6657 157.047 23.8254 157.047 22.1446V17.5014L155.632 17.5196C155.547 17.2173 155.505 16.8878 155.505 16.5311C155.505 16.1744 155.547 15.8328 155.632 15.5063L157.047 15.5426V14.4906C157.047 13.8739 157.165 13.4356 157.4 13.1756C157.636 12.9157 158.032 12.7857 158.588 12.7857H159.695L159.822 12.9127V15.5426L161.98 15.5063ZM164.61 23.3598L162.851 15.6877C163.443 15.47 163.957 15.3612 164.392 15.3612C164.84 15.3612 165.16 15.4579 165.354 15.6514C165.547 15.8449 165.686 16.1532 165.771 16.5764L166.333 19.4965C166.599 20.8145 166.756 21.7577 166.805 22.326C166.817 22.4348 166.865 22.4892 166.95 22.4892L167.947 15.6151C168.37 15.5305 168.927 15.4882 169.616 15.4882C170.305 15.4882 170.855 15.5305 171.266 15.6151L172.282 22.326C172.294 22.4348 172.343 22.4892 172.427 22.4892C172.645 21.0503 172.808 20.0528 172.917 19.4965L173.733 15.5426C174.023 15.4579 174.416 15.4156 174.912 15.4156C175.529 15.4156 175.994 15.4942 176.309 15.6514L176.399 15.8328L174.277 24.575C173.83 24.6476 173.225 24.6839 172.463 24.6839C171.702 24.6839 171.188 24.5992 170.922 24.4299C170.656 24.2607 170.486 23.916 170.414 23.3961L170.124 21.4554C169.942 20.3309 169.785 19.1882 169.652 18.0274H169.543C169.531 18.1241 169.374 19.2547 169.072 21.4191L168.564 24.575C167.983 24.6476 167.343 24.6839 166.641 24.6839C165.94 24.6839 165.453 24.5932 165.181 24.4118C164.909 24.2304 164.719 23.8798 164.61 23.3598ZM183.944 16.3225C184.815 17.1931 185.25 18.4385 185.25 20.0588C185.25 20.7843 185.157 21.4433 184.969 22.0358C184.782 22.6283 184.51 23.1331 184.153 23.5503C183.796 23.9674 183.358 24.2879 182.838 24.5116C182.318 24.7352 181.72 24.8471 181.042 24.8471C180.365 24.8471 179.77 24.7322 179.256 24.5025C178.742 24.2727 178.307 23.9493 177.95 23.5321C177.593 23.115 177.324 22.6101 177.143 22.0177C176.962 21.4252 176.871 20.7722 176.871 20.0588C176.871 19.3333 176.962 18.6773 177.143 18.0909C177.324 17.5045 177.59 16.9996 177.941 16.5764C178.292 16.1532 178.727 15.8267 179.247 15.597C179.767 15.3673 180.365 15.2524 181.042 15.2524C182.24 15.2524 183.207 15.6091 183.944 16.3225ZM181.061 17.3745C180.795 17.3745 180.58 17.4379 180.417 17.5649C180.253 17.6919 180.123 17.8642 180.027 18.0818C179.93 18.2995 179.864 18.5504 179.827 18.8345C179.791 19.1187 179.773 19.424 179.773 19.7505C179.773 20.2583 179.788 20.6966 179.818 21.0654C179.848 21.4342 179.909 21.7426 180 21.9904C180.09 22.2383 180.217 22.4227 180.38 22.5436C180.544 22.6646 180.758 22.725 181.024 22.725C181.556 22.725 181.907 22.4923 182.076 22.0267C182.246 21.5612 182.33 20.8992 182.33 20.0407C182.33 19.1701 182.246 18.5081 182.076 18.0546C181.907 17.6012 181.568 17.3745 181.061 17.3745ZM186.339 16.8303C186.399 16.5885 186.514 16.3195 186.683 16.0232C186.852 15.727 187.022 15.5124 187.191 15.3793C188.303 15.464 189.077 16.0142 189.513 17.0299C189.972 15.9416 190.728 15.3975 191.78 15.3975C192.094 15.3975 192.493 15.4459 192.977 15.5426C192.977 15.9174 192.913 16.3618 192.786 16.8757C192.66 17.3896 192.487 17.8279 192.27 18.1907C192.064 18.1181 191.756 18.0576 191.345 18.0093C190.74 18.0093 190.244 18.3176 189.857 18.9343V24.575C189.458 24.6476 188.99 24.6839 188.452 24.6839C187.914 24.6839 187.439 24.6476 187.028 24.575V18.7166C187.028 17.8098 186.798 17.181 186.339 16.8303ZM201.03 20.9657L201.483 22.2897C201.725 23.0878 202.015 23.6017 202.354 23.8314C201.822 24.4239 201.187 24.7201 200.45 24.7201C200.051 24.7201 199.748 24.6264 199.543 24.439C199.337 24.2516 199.156 23.9221 198.999 23.4505L198.454 21.8907C198.333 21.5159 198.194 21.2649 198.037 21.138C197.88 21.011 197.668 20.9475 197.402 20.9475C197.136 20.9475 196.949 20.9536 196.84 20.9657V24.575C196.441 24.6476 195.982 24.6839 195.462 24.6839C194.942 24.6839 194.482 24.6476 194.083 24.575V11.3528L194.21 11.2259H195.299C195.867 11.2259 196.266 11.3528 196.496 11.6068C196.725 11.8607 196.84 12.302 196.84 12.9308V18.626H197.13C197.348 18.626 197.517 18.5171 197.638 18.2995L198.581 16.4857C198.92 15.7965 199.452 15.4519 200.177 15.4519C200.528 15.4519 201.054 15.464 201.755 15.4882L201.864 15.6333L200.468 18.3358C200.226 18.7952 199.917 19.1519 199.543 19.4059C200.268 19.6719 200.764 20.1918 201.03 20.9657Z" fill="#050505"/>
<path d="M65.413 32.8472C65.9233 32.8472 66.3005 32.9923 66.5446 33.2827L66.1119 33.6644C66.0454 33.564 65.9511 33.4834 65.829 33.4225C65.707 33.3615 65.5665 33.3311 65.4074 33.3311C65.1782 33.3311 64.9942 33.3857 64.8555 33.495C64.7168 33.6044 64.6475 33.745 64.6475 33.9171C64.6475 34.2038 64.8435 34.4045 65.2355 34.5192L65.7292 34.6751C66.0065 34.7612 66.2182 34.8812 66.3643 35.0354C66.5104 35.1895 66.5834 35.4009 66.5834 35.6698C66.5834 36.021 66.4549 36.3051 66.1979 36.5219C65.9409 36.7387 65.6145 36.8472 65.2188 36.8472C64.653 36.8472 64.2352 36.6715 63.9652 36.3203L64.4034 35.9547C64.4885 36.0837 64.605 36.1841 64.7529 36.2558C64.9008 36.3275 65.0617 36.3633 65.2355 36.3633C65.4537 36.3633 65.6386 36.3024 65.7902 36.1805C65.9418 36.0586 66.0176 35.9081 66.0176 35.7289C66.0176 35.5963 65.9714 35.4852 65.8789 35.3956C65.7865 35.306 65.6201 35.2253 65.3797 35.1536L65.0302 35.0407C64.6789 34.926 64.433 34.78 64.2925 34.6026C64.152 34.4251 64.0817 34.1967 64.0817 33.9171C64.0817 33.6196 64.2056 33.3669 64.4534 33.159C64.7011 32.9511 65.021 32.8472 65.413 32.8472V32.8472ZM73.5339 32.9439V33.4278H72.2692V36.7504H71.7367V33.4278H70.4719V32.9439H73.5339ZM80.1793 32.9439V33.4278H78.1768V34.5622H80.0406V35.0461H78.1768V36.2665H80.2791V36.7504H77.6443V32.9439H80.1793ZM85.9871 32.9439C86.368 32.9439 86.6684 33.0353 86.8885 33.2181C87.1085 33.4009 87.2185 33.6644 87.2185 34.0085C87.2185 34.3418 87.1094 34.6025 86.8912 34.7907C86.6731 34.9789 86.3717 35.073 85.9871 35.073H85.1106V36.7504H84.5781V32.9439H85.9871ZM85.8318 34.6214C86.1091 34.6214 86.3153 34.5721 86.4503 34.4735C86.5852 34.3749 86.6527 34.2199 86.6527 34.0084C86.6527 33.5999 86.3791 33.3956 85.8318 33.3956H85.1106V34.6213H85.8318V34.6214ZM97.0313 32.9439V36.7504H96.4988V32.9439H97.0313ZM102.284 32.9439L104.448 36.073H104.459V32.9439H104.991V36.7504H104.315L102.129 33.6214H102.118V36.7504H101.585V32.9439H102.284ZM112.164 32.9439V33.4278H110.899V36.7504H110.366V33.4278H109.102V32.9439H112.164ZM118.077 32.8472C118.661 32.8472 119.148 33.0353 119.539 33.4117C119.929 33.788 120.124 34.2665 120.124 34.8472C120.124 35.2163 120.037 35.5541 119.863 35.8606C119.689 36.167 119.444 36.4081 119.128 36.5837C118.812 36.7593 118.461 36.8471 118.077 36.8471C117.696 36.8471 117.348 36.7602 117.034 36.5864C116.72 36.4126 116.474 36.1724 116.296 35.866C116.119 35.5595 116.03 35.2199 116.03 34.8472C116.03 34.2809 116.221 33.8059 116.604 33.4224C116.987 33.0389 117.478 32.8472 118.077 32.8472ZM116.596 34.8472C116.596 35.2773 116.734 35.6375 117.012 35.9278C117.289 36.2181 117.644 36.3633 118.077 36.3633C118.502 36.3633 118.855 36.2199 119.136 35.9332C119.417 35.6464 119.558 35.2844 119.558 34.8472C119.558 34.4135 119.419 34.0524 119.142 33.7638C118.865 33.4753 118.508 33.331 118.071 33.331C117.65 33.331 117.298 33.4744 117.017 33.7611C116.736 34.0479 116.596 34.4099 116.596 34.8472ZM130.907 32.9439C131.266 32.9439 131.551 33.03 131.761 33.202C131.972 33.3741 132.078 33.6052 132.078 33.8956C132.078 34.3077 131.852 34.5873 131.401 34.7343V34.745H131.406C131.662 34.7737 131.866 34.8767 132.019 35.0541C132.173 35.2316 132.25 35.4439 132.25 35.6912C132.25 36.0102 132.123 36.2665 131.87 36.46C131.616 36.6536 131.29 36.7504 130.891 36.7504H129.52V32.9439H130.907ZM130.796 34.5246C131.018 34.5246 131.193 34.4753 131.321 34.3767C131.448 34.2782 131.512 34.1375 131.512 33.9547C131.512 33.7826 131.456 33.6464 131.345 33.5461C131.235 33.4457 131.088 33.3956 130.907 33.3956H130.053V34.5246H130.796ZM130.857 36.2988C131.12 36.2988 131.323 36.2396 131.467 36.1213C131.612 36.0031 131.684 35.8471 131.684 35.6536C131.684 35.4386 131.611 35.2719 131.465 35.1536C131.319 35.0353 131.112 34.9762 130.846 34.9762H130.053V36.2988H130.857ZM137.092 32.9439V36.2665H138.895V36.7504H136.56V32.9439H137.092ZM144.786 32.8472C145.37 32.8472 145.858 33.0353 146.248 33.4117C146.638 33.788 146.833 34.2665 146.833 34.8472C146.833 35.2163 146.746 35.5541 146.572 35.8606C146.398 36.167 146.153 36.4081 145.837 36.5837C145.521 36.7593 145.171 36.8471 144.786 36.8471C144.405 36.8471 144.058 36.7602 143.743 36.5864C143.429 36.4126 143.183 36.1724 143.005 35.866C142.828 35.5595 142.739 35.2199 142.739 34.8472C142.739 34.2809 142.931 33.8059 143.313 33.4224C143.696 33.0389 144.187 32.8472 144.786 32.8472ZM143.305 34.8472C143.305 35.2773 143.444 35.6375 143.721 35.9278C143.998 36.2181 144.353 36.3633 144.786 36.3633C145.211 36.3633 145.564 36.2199 145.846 35.9332C146.127 35.6464 146.267 35.2844 146.267 34.8472C146.267 34.4135 146.128 34.0524 145.851 33.7638C145.574 33.4753 145.217 33.331 144.78 33.331C144.359 33.331 144.008 33.4744 143.727 33.7611C143.445 34.0479 143.305 34.4099 143.305 34.8472ZM152.946 32.8472C153.223 32.8472 153.483 32.8973 153.725 32.9977C153.967 33.0981 154.166 33.245 154.321 33.4386L153.878 33.7665C153.637 33.4762 153.321 33.331 152.929 33.331C152.504 33.331 152.153 33.478 151.878 33.7719C151.602 34.0658 151.465 34.435 151.465 34.8794C151.465 35.3095 151.601 35.6643 151.872 35.9439C152.144 36.2235 152.496 36.3633 152.929 36.3633C153.362 36.3633 153.704 36.193 153.955 35.8525L154.405 36.1805C154.249 36.3812 154.042 36.5425 153.783 36.6643C153.525 36.7862 153.236 36.8471 152.918 36.8471C152.541 36.8471 152.199 36.7584 151.892 36.581C151.585 36.4036 151.343 36.1599 151.165 35.8498C150.988 35.5398 150.899 35.2145 150.899 34.874C150.899 34.2862 151.089 33.8015 151.47 33.4197C151.851 33.038 152.343 32.8472 152.946 32.8472V32.8472ZM159.125 32.9439V34.5891H159.17L160.906 32.9439H161.649L159.752 34.702L161.777 36.7504H161L159.17 34.8472H159.125V36.7504H158.593V32.9439H159.125ZM167.535 32.8472C167.812 32.8472 168.072 32.8973 168.314 32.9977C168.556 33.0981 168.755 33.245 168.91 33.4386L168.466 33.7665C168.226 33.4762 167.91 33.331 167.518 33.331C167.093 33.331 166.742 33.478 166.467 33.7719C166.191 34.0658 166.053 34.435 166.053 34.8794C166.053 35.3095 166.189 35.6643 166.461 35.9439C166.733 36.2235 167.085 36.3633 167.518 36.3633C167.951 36.3633 168.293 36.193 168.544 35.8525L168.993 36.1805C168.838 36.3812 168.631 36.5425 168.372 36.6643C168.113 36.7862 167.825 36.8471 167.507 36.8471C167.13 36.8471 166.788 36.7584 166.481 36.581C166.174 36.4036 165.931 36.1599 165.754 35.8498C165.576 35.5398 165.488 35.2145 165.488 34.874C165.488 34.2862 165.678 33.8015 166.059 33.4197C166.44 33.038 166.932 32.8472 167.535 32.8472V32.8472ZM173.714 32.9439V34.5246H175.75V32.9439H176.282V36.7504H175.75V35.0084H173.714V36.7504H173.181V32.9439H173.714ZM182.55 32.9439L184.231 36.7504H183.61L183.216 35.8095H181.347L180.958 36.7504H180.337L182.068 32.9439H182.55ZM181.535 35.3579H183.022L182.29 33.6106H182.279L181.535 35.3579ZM188.819 32.9439V36.7504H188.286V32.9439H188.819ZM194.072 32.9439L196.235 36.073H196.246V32.9439H196.779V36.7504H196.102L193.916 33.6214H193.905V36.7504H193.373V32.9439H194.072ZM201.599 36.073C201.703 36.073 201.79 36.1088 201.86 36.1805C201.93 36.2522 201.965 36.3346 201.965 36.4278C201.965 36.5317 201.928 36.6169 201.854 36.6832C201.78 36.7495 201.695 36.7826 201.599 36.7826C201.503 36.7826 201.418 36.7486 201.344 36.6805C201.27 36.6124 201.233 36.5282 201.233 36.4278C201.233 36.3274 201.27 36.2432 201.344 36.1751C201.418 36.107 201.503 36.073 201.599 36.073Z" fill="#050505"/>
</svg>
