<svg width="51" height="68" viewBox="0 0 51 68" fill="none" xmlns="http://www.w3.org/2000/svg">
<path d="M26.0696 0C12.1182 0.0570515 0.822032 11.557 0.765991 25.7601C0.765991 28.6045 1.21698 31.4299 2.10029 34.1277C2.75943 35.9642 4.71551 36.9531 6.55151 36.3853C8.32613 35.6925 9.26814 33.7174 8.7024 31.8701C7.95252 29.7673 7.61895 27.5369 7.71769 25.3037C8.02191 15.0453 16.436 6.9793 26.5126 7.28901C36.5892 7.59872 44.5123 16.1646 44.2081 26.423C43.9225 36.0267 36.4932 43.8264 27.0704 44.4105C27.0704 44.4105 23.5184 44.6306 21.7518 44.8506C21.1007 44.9457 20.4549 45.0761 19.8171 45.2418C19.7264 45.3369 19.5796 45.3369 19.4862 45.2446L19.4835 45.2418C19.4195 45.1576 19.4195 45.0381 19.4835 44.9539L20.0333 41.9002L23.369 26.6267C23.7693 24.7196 22.5764 22.8423 20.7031 22.4348C18.8297 22.0273 16.9857 23.2417 16.5854 25.1488C16.5854 25.1488 8.6517 62.5339 8.6517 62.8735C8.19803 64.691 9.27615 66.5383 11.0614 67.0002C11.0801 67.0056 11.1015 67.0111 11.1201 67.0138H11.3043C13.0869 67.4838 14.9069 66.3916 15.3659 64.5769C15.3739 64.547 15.3819 64.5171 15.3872 64.4845C15.3819 64.4274 15.3819 64.3704 15.3872 64.316C15.486 63.8759 16.4867 58.9016 16.4867 58.9016C17.2446 55.1471 20.2174 52.27 23.9374 51.6887C24.7033 51.5691 27.9216 51.3491 27.9216 51.3491C41.8197 49.9391 51.963 37.3253 50.5754 23.1765C49.3104 10.272 38.8095 0.336875 26.0696 0Z" fill="#1E1E1E"/>
<path d="M27.8234 59.396C25.5417 58.9124 23.3108 60.4039 22.8357 62.724C22.8304 62.7458 22.8277 62.7675 22.8224 62.7892C22.3287 65.0958 23.7644 67.3751 26.0327 67.8777C26.0354 67.8777 26.0381 67.8777 26.0407 67.8804H26.1582C28.3785 68.4265 30.6121 67.0355 31.1458 64.7779C31.1511 64.7616 31.1538 64.7426 31.1591 64.7263V64.4899C31.5514 62.1589 30.089 59.9231 27.8234 59.396Z" fill="#E6007A"/>
</svg>
