<svg width="54" height="72" viewBox="0 0 54 72" fill="none" xmlns="http://www.w3.org/2000/svg">
<path d="M34.677 71.2969C29.5582 71.2969 25.83 70.0718 23.4877 67.6215C21.1477 65.1724 19.9766 62.5309 19.9766 59.7004C19.9766 58.6654 20.1802 57.7946 20.5886 57.087C20.9871 56.3888 21.5655 55.8103 22.2637 55.4119C22.9714 55.0035 23.8421 54.7999 24.8771 54.7999C25.9121 54.7999 26.7817 55.0035 27.4905 55.4119C28.1981 55.8203 28.7561 56.3794 29.1645 57.087C29.5729 57.7946 29.7765 58.6654 29.7765 59.7004C29.7765 60.9525 29.4772 61.9729 28.8787 62.7626C28.2791 63.5524 27.5715 64.0688 26.7547 64.3151C27.4635 65.2939 28.5795 65.988 30.1039 66.3964C31.6282 66.8329 33.1526 67.05 34.677 67.05C36.7999 67.05 38.7191 66.4785 40.4347 65.3355C42.1492 64.1914 43.416 62.5039 44.2327 60.2719C45.0495 58.0399 45.4579 55.5075 45.4579 52.6759C45.4579 49.6001 45.0079 46.9721 44.1101 44.7952C43.2383 42.5903 41.9456 40.9568 40.23 39.8948C38.5673 38.8484 36.6415 38.2963 34.677 38.3029C33.3697 38.3029 31.7374 38.8474 29.7765 39.9364L26.1832 41.733V39.9364L42.354 18.3758H19.9766V40.752C19.9766 42.6038 20.385 44.1281 21.2017 45.3263C22.0185 46.5244 23.2706 47.1229 24.9592 47.1229C26.2642 47.1229 27.5175 46.6875 28.7156 45.8156C29.9214 44.9363 30.9704 43.8599 31.8184 42.6319C31.9275 42.3855 32.0636 42.2089 32.2267 42.0998C32.3735 41.9702 32.562 41.8979 32.7577 41.8961C33.057 41.8961 33.4102 42.0458 33.8197 42.3461C34.2011 42.7804 34.3912 43.2844 34.3912 43.8559C34.3444 44.2408 34.276 44.6227 34.1865 45C33.2617 47.0689 31.9815 48.6473 30.348 49.7363C28.7577 50.812 26.8792 51.3815 24.9592 51.3698C20.1127 51.3698 16.7636 50.4169 14.913 48.5123C13.0624 46.6054 12.1365 44.019 12.1365 40.7531V18.3758H0.701996V14.2099H12.1365V4.73738L9.52312 2.12175V0H17.118L19.9755 1.46925V14.2099L49.5405 14.1289L52.4812 17.0685L34.3507 35.199C35.4484 34.7615 36.6039 34.4864 37.7809 34.3823C39.7406 34.3823 41.9456 35.0089 44.3959 36.261C46.8731 37.4861 48.7789 39.1748 50.112 41.3235C51.4462 43.4475 52.3035 45.4894 52.6849 47.4491C53.0932 49.41 53.298 51.1515 53.298 52.6759C53.298 56.1611 52.5622 59.4 51.093 62.3959C49.6226 65.3895 47.3906 67.6215 44.3959 69.0919C41.4011 70.5623 38.1611 71.2969 34.677 71.2969Z" fill="#2C7DF7"/>
</svg>
