<svg width="43" height="48" viewBox="0 0 43 48" fill="none" xmlns="http://www.w3.org/2000/svg">
<path fill-rule="evenodd" clip-rule="evenodd" d="M24 3C24 4.52772 22.8581 5.78872 21.3812 5.97601C20.3578 7.83437 19.3787 10.9545 18.7736 15.0666C18.0195 14.7134 17.9158 7.61633 19.0297 5.40079L19.0613 5.28949C18.4121 4.73919 18 3.91772 18 3C18 1.34315 19.3431 0 21 0C22.6569 0 24 1.34315 24 3ZM5.7143 12.1207C5.23411 11.1038 4.19923 10.4001 3 10.4001C1.34315 10.4001 0 11.7433 0 13.4001C0 15.057 1.34315 16.4001 3 16.4001C4.00738 16.4001 4.89879 15.9036 5.44285 15.1419C8.45168 14.7666 14.9047 16.4595 22.9292 21.2681C24.045 21.9367 25.0943 22.6122 26.0838 23.2862C26.7905 22.7907 27.4567 22.3001 28.0834 21.8172C26.8088 20.9245 25.4827 20.0633 24.1299 19.2524C17.2679 15.1406 10.6341 12.748 6.3516 12.7427C6.21747 12.6039 5.98959 12.3778 5.7143 12.1207ZM18.8349 42.9234C18.3178 43.4624 18 44.1941 18 45C18 46.6569 19.3431 48 21 48C22.6569 48 24 46.6569 24 45C24 43.4731 22.8594 42.2127 21.3837 42.0243C19.711 38.9916 18.1561 32.5934 18.1561 23.9999C18.1561 22.6194 18.198 21.3 18.2723 20.0372C17.4869 19.6404 16.7266 19.2775 15.9982 18.9519C15.8771 20.611 15.8153 22.3069 15.8153 23.9994C15.8153 31.1637 16.9095 38.3803 19.0321 42.598C18.9603 42.7028 18.8947 42.8119 18.8349 42.9234ZM30.0213 26.228C33.4327 29.0318 35.6504 31.6345 36.6058 33.5059C36.4729 33.8448 36.4 34.2138 36.4 34.5999C36.4 36.2567 37.7432 37.5999 39.4 37.5999C41.0569 37.5999 42.4 36.2567 42.4 34.5999C42.4 32.943 41.0569 31.5999 39.4 31.5999C39.3337 31.5999 39.2678 31.602 39.2026 31.6063C38.7793 31.541 38.4088 31.5193 38.1965 31.5193C36.8838 29.3681 30.6702 25.7485 30.0213 26.228ZM6.3516 35.2561C8.71693 35.2536 15.0425 31.5779 14.9639 30.7602C10.7023 32.4913 7.36567 33.0974 5.44059 32.8549C4.89632 32.095 4.00599 31.5999 3 31.5999C1.34315 31.5999 0 32.943 0 34.5999C0 36.2567 1.34315 37.5999 3 37.5999C4.19597 37.5999 5.22848 36.9 5.71036 35.8875C5.91595 35.6915 6.12879 35.4809 6.3516 35.2561ZM38.3312 16.2041C38.6632 16.3308 39.0235 16.4001 39.4 16.4001C41.0569 16.4001 42.4 15.057 42.4 13.4001C42.4 11.7433 41.0569 10.4001 39.4 10.4001C37.7432 10.4001 36.4 11.7433 36.4 13.4001C36.4 13.7889 36.474 14.1604 36.6086 14.5013C35.0944 17.4566 30.4251 22.2386 22.9287 26.7307C21.7448 27.4405 20.5957 28.0801 19.4861 28.6574C19.5479 29.536 19.625 30.3745 19.7162 31.1724C21.1621 30.4486 22.6402 29.6386 24.129 28.7459C30.1916 25.1127 35.7626 20.4726 38.1965 16.4857C38.2544 16.3909 38.2974 16.2968 38.3312 16.2041Z" fill="#1D1929"/>
</svg>
